<svg xmlns="http://www.w3.org/2000/svg" width="70" height="70" viewBox="0 0 70 70">
  <g id="Group_606" data-name="Group 606" transform="translate(-153 -346)">
    <g id="Group_317" data-name="Group 317" transform="translate(0 157)">
      <circle id="Ellipse_76" data-name="Ellipse 76" cx="35" cy="35" r="35" transform="translate(153 189)" fill="#0c2a3b"/>
    </g>
    <g id="notifications-sharp" transform="translate(168.721 359.841)" opacity="0.3">
      <path id="Path_1691" data-name="Path 1691" d="M12.307,17.82a7.208,7.208,0,0,0,6.6-4.32H5.709A7.208,7.208,0,0,0,12.307,17.82Z" transform="translate(6.973 23.499)" fill="#a4e4f6"/>
      <path id="Path_1692" data-name="Path 1692" d="M32.239,24.039V18.59c0-6.342-2.462-11.865-8.64-13.271L22.879,1h-7.2l-.72,4.32c-6.2,1.405-8.64,6.909-8.64,13.271v5.449L2,29.8v4.32H36.559V29.8Z" fill="#a4e4f6"/>
    </g>
    <g id="Ellipse_120" data-name="Ellipse 120" transform="translate(198 385)" fill="#3a6273" stroke="#0c2a3b" stroke-width="1.4">
      <circle cx="6" cy="6" r="6" stroke="none"/>
      <circle cx="6" cy="6" r="5.3" fill="none"/>
    </g>
    <path id="block" d="M3.045.111A2.935,2.935,0,0,1,5.2,1a2.926,2.926,0,0,1,.892,2.147A2.926,2.926,0,0,1,5.2,5.3a2.935,2.935,0,0,1-2.154.892A2.935,2.935,0,0,1,.891,5.3,2.925,2.925,0,0,1,0,3.149,2.928,2.928,0,0,1,.892,1,2.934,2.934,0,0,1,3.045.111ZM.614,3.149a2.365,2.365,0,0,0,.513,1.5L4.536,1.224A2.365,2.365,0,0,0,3.038.71a2.334,2.334,0,0,0-1.712.713A2.353,2.353,0,0,0,.614,3.149ZM3.038,5.589a2.35,2.35,0,0,0,1.726-.713,2.353,2.353,0,0,0,.713-1.726,2.365,2.365,0,0,0-.513-1.5L1.555,5.075A2.345,2.345,0,0,0,3.038,5.589Z" transform="translate(200.954 387.851)" fill="#0c2a3b"/>
  </g>
</svg>
